<?xml version="1.0" encoding="utf-8"?>
<!-- Generator: Adobe Illustrator 15.1.0, SVG Export Plug-In . SVG Version: 6.00 Build 0)  -->
<!DOCTYPE svg PUBLIC "-//W3C//DTD SVG 1.1//EN" "http://www.w3.org/Graphics/SVG/1.1/DTD/svg11.dtd">
<svg version="1.1" id="Layer_1" xmlns="http://www.w3.org/2000/svg" xmlns:xlink="http://www.w3.org/1999/xlink" x="0px" y="0px"
	 width="100px" height="91.468px" viewBox="0 0 100 91.468" enable-background="new 0 0 100 91.468" xml:space="preserve">
<g>
	<path fill="#010101" d="M91.417,8.533C79.95-2.875,61.416-2.812,50.01,8.655C44.307,2.922,36.821,0.02,29.327,0
		C21.833-0.02,14.336,2.83,8.604,8.533C-2.863,19.937-3.154,38.344,9.457,50.956C23.532,65.03,46.068,87.524,50.01,91.468
		c3.944-3.944,26.435-26.438,40.512-40.513C103.135,38.344,102.882,19.937,91.417,8.533z M36.52,24.177l-2.235-1.707l1.178-2.357
		l2.723,0.731c0.641-0.74,1.404-1.295,2.235-1.707l-0.041-2.804l2.56-0.569l1.097,2.601c0.933,0.049,1.889,0.239,2.763,0.65
		l2.154-1.747l2.032,1.666l-1.341,2.438c0.569,0.781,0.995,1.688,1.219,2.601l2.723,0.569l-0.041,2.641l-2.763,0.488
		c-0.248,0.887-0.658,1.744-1.26,2.52l1.26,2.519l-2.072,1.585l-2.113-1.829c-0.882,0.37-1.857,0.596-2.804,0.609l-1.178,2.52
		l-2.52-0.65l0.122-2.763c-0.417-0.22-0.803-0.505-1.179-0.812c-0.371-0.304-0.722-0.651-1.016-1.016l-2.723,0.65l-1.097-2.357
		l2.276-1.666C36.314,26.053,36.319,25.111,36.52,24.177z M19.413,38.806l-3.292-0.812l0.122-3.617
		c-0.531-0.291-1.016-0.658-1.503-1.056c-0.483-0.402-0.916-0.836-1.3-1.3l-3.535,0.853l-1.422-3.047l2.925-2.154
		c-0.221-1.208-0.214-2.447,0.041-3.657L8.604,21.78l1.503-3.047l3.495,0.975c0.835-0.959,1.813-1.736,2.885-2.275l-0.041-3.617
		l3.332-0.69l1.422,3.332c1.213,0.054,2.439,0.326,3.576,0.853l2.804-2.275l2.641,2.153l-1.707,3.17
		c0.736,1.013,1.254,2.151,1.544,3.332l3.535,0.772l-0.041,3.413l-3.576,0.65c-0.32,1.157-0.854,2.247-1.625,3.25
		c-0.001,0.001-0.04,0-0.041,0l1.625,3.251l-2.682,2.113l-2.723-2.397c-1.141,0.485-2.387,0.75-3.616,0.772L19.413,38.806z
		 M47.694,51.484c-0.422,1.361-1.111,2.661-2.072,3.819l1.788,3.901l-3.251,2.356l-3.169-2.926
		c-1.368,0.533-2.813,0.795-4.267,0.772l-1.951,3.86l-3.901-1.098l0.325-4.308c-0.618-0.362-1.192-0.767-1.747-1.259
		c-0.562-0.496-1.069-1.013-1.503-1.585l-4.226,0.854l-1.585-3.698l3.576-2.438c-0.215-1.443-0.146-2.925,0.203-4.349l-3.332-2.763
		l1.95-3.535l4.104,1.259c1.026-1.103,2.238-1.923,3.535-2.519l0.082-4.307l3.982-0.731l1.544,4.022
		c1.435,0.112,2.859,0.509,4.185,1.179l3.454-2.641l3.007,2.682l-2.154,3.738c0.836,1.227,1.409,2.577,1.707,3.982l4.186,1.057
		l-0.203,4.022L47.694,51.484z"/>
	<polygon fill="#010101" points="23.208,23.018 21.698,22.747 20.233,22.292 19.08,23.303 17.813,24.162 17.883,25.694 
		17.769,27.224 19.01,28.12 20.128,29.167 21.605,28.755 23.128,28.531 23.725,27.118 24.493,25.792 23.767,24.445 	"/>
	<polygon fill="#010101" points="42.34,27.357 43.201,28.165 44.339,27.85 45.513,27.679 45.975,26.589 46.567,25.568 
		46.006,24.526 45.58,23.427 44.415,23.216 43.285,22.864 42.396,23.646 41.42,24.303 41.472,25.487 41.382,26.666 	"/>
	<polygon fill="#010101" points="39.898,44.685 38.118,44.302 36.398,43.708 34.989,44.865 33.456,45.838 33.478,47.657 
		33.278,49.464 34.72,50.577 36.012,51.864 37.779,51.43 39.592,51.222 40.353,49.569 41.321,48.027 40.505,46.402 	"/>
</g>
</svg>
